<?xml version="1.0" standalone="no"?>
<svg version="1.0" xmlns="http://www.w3.org/2000/svg"
 width="592.000000pt" height="593.000000pt" viewBox="0 0 592.000000 593.000000"
 preserveAspectRatio="xMidYMid meet">

<g transform="translate(0.000000,593.000000) scale(0.100000,-0.100000)"
fill="#ffffff" stroke="none">
<path d="M4803 5676 c-151 -37 -274 -138 -346 -284 l-42 -87 0 -120 c0 -125
10 -168 59 -255 60 -107 166 -193 288 -234 236 -80 500 32 608 258 54 113 68
207 46 312 -22 111 -67 197 -140 269 -129 127 -308 181 -473 141z"/>
<path d="M5409 4645 c-3 -2 -104 -39 -224 -81 -121 -41 -276 -95 -345 -119
-69 -24 -230 -80 -357 -124 -128 -44 -237 -83 -243 -86 -12 -8 -14 -485 -2
-485 8 0 221 74 285 99 16 6 33 11 38 11 6 0 9 -264 7 -727 l-3 -728 -28 -54
c-29 -57 -61 -90 -112 -119 -23 -13 -55 -17 -140 -17 -99 1 -117 4 -182 30
-70 29 -473 299 -473 317 0 5 12 13 27 19 166 63 358 217 454 365 52 78 82
149 104 244 21 92 19 153 -10 265 -32 127 -85 216 -189 321 -137 138 -302 201
-497 191 -107 -5 -78 4 -934 -297 -104 -37 -453 -159 -578 -202 l-57 -20 0
-239 c0 -131 2 -239 4 -239 2 0 46 16 97 35 52 19 95 35 97 35 1 0 2 -153 2
-340 0 -187 -3 -340 -6 -340 -7 0 -182 160 -339 310 -49 48 -128 122 -175 165
-47 44 -121 113 -165 155 -250 237 -221 215 -263 203 -20 -6 -89 -29 -152 -51
-540 -190 -682 -240 -720 -251 l-25 -7 -3 -242 c-1 -133 -1 -242 0 -242 2 0
63 23 137 50 74 28 136 50 138 50 1 0 3 -314 3 -699 l0 -699 -27 -10 c-36 -14
-158 -57 -205 -73 l-38 -13 0 -252 0 -253 173 61 c94 33 228 80 297 103 165
58 485 170 535 188 l40 14 6 174 c3 96 6 175 7 177 1 1 47 2 103 2 109 0 102
5 85 -55 -5 -16 6 -33 44 -70 45 -45 51 -48 75 -37 14 6 25 16 25 22 0 5 9 10
21 10 19 0 19 1 5 16 -19 18 -19 20 -6 44 13 24 55 33 95 20 60 -20 80 -109
30 -137 -12 -7 -13 -12 -3 -26 12 -16 20 -13 93 28 44 26 88 57 97 70 17 22
16 25 -4 62 -38 70 -2 133 75 133 58 0 87 -30 87 -87 0 -36 -9 -52 -58 -115
-199 -249 -487 -437 -672 -438 -40 0 -53 -7 -112 -57 -58 -49 -68 -62 -68 -89
0 -18 -3 -40 -7 -50 -4 -12 -3 -15 5 -10 11 7 29 -24 47 -79 l6 -20 15 20 c14
19 16 19 54 -25 l39 -45 7 33 c8 40 16 40 64 2 21 -16 41 -30 44 -30 3 0 6 13
6 29 0 24 17 43 101 117 55 49 133 106 172 128 262 141 664 413 761 515 l29
30 -45 50 c-56 62 -88 128 -88 181 0 91 82 189 221 264 90 49 155 66 249 66
122 0 193 -26 333 -119 200 -134 425 -220 672 -256 125 -18 226 -18 380 -1
496 57 767 227 957 601 50 99 102 253 118 355 12 79 14 2380 2 2380 -5 0 -11
-2 -13 -5z m-2067 -1270 c57 -38 78 -94 78 -203 0 -56 -5 -106 -14 -126 -13
-32 -80 -96 -101 -96 -5 0 -71 -23 -145 -51 -206 -77 -238 -87 -244 -81 -3 3
-6 108 -6 232 0 238 0 240 45 253 11 3 76 26 145 51 146 52 190 56 242 21z
m-1923 -1397 c20 -17 75 -67 122 -111 83 -76 87 -82 92 -131 3 -28 9 -63 13
-78 9 -40 -19 -48 -54 -15 -27 26 -28 26 -40 7 -6 -11 -12 -43 -12 -71 0 -37
-5 -56 -17 -66 -41 -31 -143 -84 -153 -78 -15 9 -14 575 1 575 6 0 28 -14 48
-32z m320 -504 c7 -7 -65 -138 -78 -142 -13 -4 -14 34 -2 74 5 16 12 42 16 57
5 26 9 28 33 22 15 -4 29 -9 31 -11z"/>
</g>
</svg>
